<?xml version="1.0" encoding="UTF-8" standalone="no"?>
<!-- Created with Inkscape (http://www.inkscape.org/) -->

<svg
   xmlns:dc="http://purl.org/dc/elements/1.1/"
   xmlns:cc="http://creativecommons.org/ns#"
   xmlns:rdf="http://www.w3.org/1999/02/22-rdf-syntax-ns#"
   xmlns:svg="http://www.w3.org/2000/svg"
   xmlns="http://www.w3.org/2000/svg"
   version="1.1"
   width="16"
   height="16"
   id="svg3089">
  <defs
     id="defs3091" />
  <metadata
     id="metadata3094">
    <rdf:RDF>
      <cc:Work
         rdf:about="">
        <dc:format>image/svg+xml</dc:format>
        <dc:type
           rdf:resource="http://purl.org/dc/dcmitype/StillImage" />
        <dc:title></dc:title>
      </cc:Work>
    </rdf:RDF>
  </metadata>
  <g
     transform="translate(0,-1036.3622)"
     id="layer1" />
  <g
     transform="matrix(0.99889248,0,0,1,-235.18152,-515.90619)"
     id="layer1-0">
    <g
       transform="translate(21.901318,-282.48259)"
       id="g4324" />
    <g
       id="g3656">
      <rect
         width="16"
         height="16"
         x="235.45782"
         y="515.90619"
         id="rect3576"
         style="color:#000000;fill:none;stroke:none;stroke-width:1.5;marker:none;visibility:visible;display:inline;overflow:visible;enable-background:accumulate" />
      <path
         d="m 247.33497,516.68251 c -0.90657,0 -1.65625,0.71843 -1.65625,1.625 0,0.90657 0.74968,1.65625 1.65625,1.65625 0.90657,0 1.625,-0.74968 1.625,-1.65625 0,-0.90657 -0.71843,-1.625 -1.625,-1.625 z"
         id="path3628"
         style="font-size:medium;font-style:normal;font-variant:normal;font-weight:normal;font-stretch:normal;text-indent:0;text-align:start;text-decoration:none;line-height:normal;letter-spacing:normal;word-spacing:normal;text-transform:none;direction:ltr;block-progression:tb;writing-mode:lr-tb;text-anchor:start;baseline-shift:baseline;color:#000000;fill:#000000;fill-opacity:1;stroke:none;stroke-width:1px;marker:none;visibility:visible;display:inline;overflow:visible;enable-background:accumulate;font-family:Sans;-inkscape-font-specification:Sans" />
      <path
         d="m 240.89747,517.12001 -2.13118,1.16699 c -0.34362,0.19635 -0.47863,0.61552 -0.3125,0.90625 0.16052,0.27803 0.52246,0.35037 0.84375,0.1875 l 1.94368,-1.04199 0.875,0.4375 -2.84375,1.625 c -0.20527,0.11852 -0.54818,0.25442 -0.84375,0.40625 -0.2069,-0.15598 -0.3711,-0.2791 -0.65625,-0.5 -0.44373,-0.34375 -1.3553,-0.66546 -2.3125,-0.875 l 0,0.875 c 0.71196,0.13473 1.2303,0.42706 1.6875,0.78125 0.6054,0.469 1.11669,1.096 1.96875,1.15625 l 0.0313,0 c 0.77226,0.0242 1.36424,-0.39045 1.9375,-0.71875 0.57326,-0.3283 1.1129,-0.625 1.8125,-0.625 0.71931,0 1.2565,0.26994 1.8125,0.59375 0.556,0.32381 1.13609,0.75 1.9375,0.75 0.42766,0 0.80154,-0.19528 1.125,-0.40625 0.32346,-0.21097 0.63558,-0.44726 0.96875,-0.6875 0.65977,-0.47575 1.65476,-0.92862 2.71875,-0.9375 l 0,-1 c -1.34001,0.009 -2.59087,0.60465 -3.3125,1.125 -0.36364,0.26222 -0.68318,0.49037 -0.9375,0.65625 -0.25432,0.16588 -0.45885,0.26364 -0.58296,0.26364 -0.11205,0 -0.10377,-0.009 -0.21418,-0.0381 -0.10371,-0.17869 -0.22728,-0.39472 -0.32786,-0.56932 -0.33571,-0.58634 -0.68444,-1.17425 -1.03125,-1.75 -0.10727,-0.20176 -0.33062,-0.39816 -0.625,-0.53125 l -2.8125,-1.28125 c -0.31774,-0.18345 -0.60068,-0.0369 -0.7188,0.0313 z"
         id="path3626"
         style="font-size:medium;font-style:normal;font-variant:normal;font-weight:normal;font-stretch:normal;text-indent:0;text-align:start;text-decoration:none;line-height:normal;letter-spacing:normal;word-spacing:normal;text-transform:none;direction:ltr;block-progression:tb;writing-mode:lr-tb;text-anchor:start;baseline-shift:baseline;color:#000000;fill:#000000;fill-opacity:1;stroke:none;stroke-width:1px;marker:none;visibility:visible;display:inline;overflow:visible;enable-background:accumulate;font-family:Sans;-inkscape-font-specification:Sans" />
      <path
         d="m 251.45997,521.37001 c -1.17986,0.0118 -2.25554,0.72121 -3.01987,1.32216 -0.63545,0.43935 -1.1826,1.05284 -1.79263,1.05284 -0.41845,0 -0.82523,-0.29207 -1.40625,-0.6875 -0.58102,-0.39543 -1.34269,-0.875 -2.34375,-0.875 -0.99317,0 -1.7449,0.475 -2.34375,0.875 -0.58796,0.39273 -1.01218,0.68719 -1.3307,0.67195 -0.31852,-0.0153 -0.91659,-0.51416 -1.63805,-1.10945 -0.5936,-0.48978 -1.26477,-1.00344 -2.125,-1.1875 l 0,1 c 0.51616,0.18026 0.97097,0.55802 1.46875,0.96875 0.69066,0.56988 1.31758,1.28031 2.18427,1.32463 0.8667,0.0443 1.43059,-0.4421 2.00328,-0.82463 0.57269,-0.38253 1.10392,-0.71875 1.78125,-0.71875 0.69741,0 1.22553,0.30929 1.78125,0.6875 0.55572,0.37821 1.13757,0.875 1.96875,0.875 0.45463,0 0.83093,-0.22437 1.1875,-0.46875 0.35657,-0.24438 0.69547,-0.52393 1.0625,-0.8125 0.72508,-0.57009 1.77397,-1.08134 2.5625,-1.09375 z"
         id="path3624"
         style="font-size:medium;font-style:normal;font-variant:normal;font-weight:normal;font-stretch:normal;text-indent:0;text-align:start;text-decoration:none;line-height:normal;letter-spacing:normal;word-spacing:normal;text-transform:none;direction:ltr;block-progression:tb;writing-mode:lr-tb;text-anchor:start;baseline-shift:baseline;color:#000000;fill:#000000;fill-opacity:1;stroke:none;stroke-width:1px;marker:none;visibility:visible;display:inline;overflow:visible;enable-background:accumulate;font-family:Sans;-inkscape-font-specification:Sans" />
      <path
         d="m 238.62978,525.30751 c -0.89276,10e-6 -1.63962,0.32997 -2.25,0.9375 -0.61039,0.60754 -0.9375,1.33169 -0.9375,2.21875 0,0.90987 0.32711,1.685 0.9375,2.3125 0.61038,0.62464 1.35724,0.9375 2.25,0.9375 0.89276,0 1.63675,-0.31286 2.25,-0.9375 0.61323,-0.6275 0.9375,-1.40263 0.9375,-2.3125 0,-0.88706 -0.32427,-1.61121 -0.9375,-2.21875 -0.61325,-0.60753 -1.35724,-0.93749 -2.25,-0.9375 z m 5.375,0 c -0.57902,10e-6 -1.03546,0.18055 -1.40625,0.5 -0.3708,0.31661 -0.5625,0.68849 -0.5625,1.15625 0,0.30235 0.0704,0.57862 0.21875,0.8125 0.15116,0.23389 0.34573,0.4313 0.5625,0.5625 0.21962,0.1312 0.4592,0.2438 0.71875,0.375 0.26241,0.13121 0.50197,0.24395 0.71875,0.34375 0.21962,0.0998 0.38293,0.24653 0.53125,0.40625 0.15116,0.15973 0.25,0.33159 0.25,0.53125 0,0.27382 -0.10715,0.48512 -0.3125,0.65625 -0.20537,0.16832 -0.45337,0.28125 -0.75,0.28125 -0.16828,0 -0.35726,-0.0425 -0.53125,-0.0937 -0.17113,-0.0542 -0.32341,-0.1219 -0.4375,-0.1875 -0.11409,-0.0684 -0.20697,-0.13605 -0.3125,-0.21875 -0.10554,-0.0856 -0.18445,-0.1533 -0.21875,-0.1875 -0.0313,-0.0371 -0.0454,-0.0454 -0.0625,-0.0625 l -0.53125,0.625 0.0937,0.0937 c 0.0542,0.0656 0.16146,0.12745 0.28125,0.21875 0.1198,0.0884 0.25223,0.19285 0.40625,0.28125 0.15402,0.0884 0.33146,0.15605 0.5625,0.21875 0.23103,0.0656 0.47345,0.0937 0.71875,0.0937 0.59612,0 1.08096,-0.15773 1.4375,-0.5 0.35653,-0.34227 0.53125,-0.75941 0.53125,-1.25 0,-0.3166 -0.0704,-0.60131 -0.21875,-0.84375 -0.14547,-0.24244 -0.34002,-0.42843 -0.5625,-0.5625 -0.21962,-0.13405 -0.45919,-0.28075 -0.71875,-0.40625 -0.2567,-0.1255 -0.49628,-0.2212 -0.71875,-0.3125 -0.21963,-0.0941 -0.41418,-0.22383 -0.5625,-0.375 -0.14549,-0.15402 -0.21875,-0.30604 -0.21875,-0.5 0,-0.23958 0.11569,-0.46811 0.3125,-0.625 0.19966,-0.15691 0.45322,-0.21874 0.78125,-0.21875 0.25099,10e-6 0.46514,0.0479 0.65625,0.15625 0.19393,0.1084 0.3125,0.24938 0.3125,0.40625 l 0,0.28125 0.8125,0 0,-0.5 c 0,-0.26241 -0.13269,-0.47655 -0.34375,-0.65625 -0.21107,-0.18254 -0.4365,-0.3094 -0.6875,-0.375 -0.251,-0.0685 -0.49901,-0.12499 -0.75,-0.125 z m 2.375,0 0,0.78125 0,5.0625 c 0,0.20706 0.0707,0.3458 0.15625,0.4375 0.0884,0.0887 0.20658,0.125 0.40625,0.125 l 1.375,0 c 0.9498,0 1.71364,-0.27583 2.28125,-0.84375 0.56759,-0.57089 0.84374,-1.36929 0.84375,-2.375 -1e-5,-0.99979 -0.27616,-1.77878 -0.84375,-2.34375 -0.56476,-0.56793 -1.32859,-0.84375 -2.28125,-0.84375 l -1.9375,0 z m 0.875,0.78125 1,0 c 0.69596,0 1.24552,0.20201 1.65625,0.625 0.41357,0.42003 0.62499,1.01218 0.625,1.78125 -1e-5,0.77498 -0.18302,1.38656 -0.59375,1.8125 -0.40788,0.42299 -0.98584,0.62501 -1.6875,0.625 l -0.78125,0 c -0.12843,10e-6 -0.21875,-0.0544 -0.21875,-0.1875 l 0,-4.65625 z m -8.625,0.0313 c 0.63035,0 1.1545,0.23684 1.59375,0.6875 0.4421,0.45066 0.6875,0.99737 0.6875,1.65625 0,0.67599 -0.2454,1.25098 -0.6875,1.71875 -0.43925,0.46777 -0.9634,0.71876 -1.59375,0.71875 -0.63035,1e-5 -1.1545,-0.25383 -1.59375,-0.71875 -0.4364,-0.46777 -0.65626,-1.03991 -0.65625,-1.71875 -1e-5,-0.65888 0.21985,-1.20559 0.65625,-1.65625 0.43925,-0.45066 0.9634,-0.6875 1.59375,-0.6875 z"
         id="path3606"
         style="font-size:10px;font-style:normal;font-variant:normal;font-weight:normal;font-stretch:normal;text-align:start;line-height:125%;letter-spacing:0px;word-spacing:0px;writing-mode:lr-tb;text-anchor:start;fill:#000000;fill-opacity:1;stroke:none;font-family:Museo500-Regular-webfont;-inkscape-font-specification:Museo500-Regular-webfont" />
    </g>
  </g>
</svg>
