<?xml version="1.0" encoding="UTF-8" standalone="no"?>
<!-- Created with Inkscape (http://www.inkscape.org/) -->

<svg
   xmlns:dc="http://purl.org/dc/elements/1.1/"
   xmlns:cc="http://creativecommons.org/ns#"
   xmlns:rdf="http://www.w3.org/1999/02/22-rdf-syntax-ns#"
   xmlns:svg="http://www.w3.org/2000/svg"
   xmlns="http://www.w3.org/2000/svg"
   version="1.1"
   width="250"
   height="250"
   id="svg3389">
  <defs
     id="defs3391" />
  <metadata
     id="metadata3394">
    <rdf:RDF>
      <cc:Work
         rdf:about="">
        <dc:format>image/svg+xml</dc:format>
        <dc:type
           rdf:resource="http://purl.org/dc/dcmitype/StillImage" />
        <dc:title></dc:title>
      </cc:Work>
    </rdf:RDF>
  </metadata>
  <g
     transform="translate(-4.8668726e-5,-802.36217)"
     id="layer1">
    <g
       transform="matrix(4.9759301,0,0,4.7644578,-1179.0516,-3041.6609)"
       id="g4155"
       style="fill:#333333">
      <g
         transform="matrix(1.9867804,0,0,1.9867804,-2.1417205,657.98835)"
         id="g4074"
         style="font-size:10px;font-style:normal;font-variant:normal;font-weight:normal;font-stretch:normal;text-align:start;line-height:125%;letter-spacing:1px;word-spacing:0px;writing-mode:lr-tb;text-anchor:start;fill:#333333;fill-opacity:1;stroke:none;font-family:Museo500-Regular-webfont;-inkscape-font-specification:Museo500-Regular-webfont">
        <path
           d="m 120.3418,78.50572 c 0,-1.012365 0.3483,-1.865229 1.04492,-2.558594 0.69661,-0.693352 1.55436,-1.040032 2.57324,-1.040039 1.01888,7e-6 1.87825,0.346687 2.57813,1.040039 0.69986,0.693365 1.04979,1.546229 1.0498,2.558594 -1e-5,1.038414 -0.34994,1.915692 -1.0498,2.631836 -0.69988,0.712891 -1.55925,1.069336 -2.57813,1.069336 -1.01888,0 -1.87663,-0.356445 -2.57324,-1.069336 -0.69662,-0.716144 -1.04492,-1.593422 -1.04492,-2.631836 m 1.04004,0 c -1e-5,0.774742 0.24902,1.429038 0.74707,1.96289 0.5013,0.530601 1.11165,0.7959 1.83105,0.795899 0.7194,10e-7 1.32975,-0.266926 1.83106,-0.800781 0.50455,-0.533852 0.75683,-1.186521 0.75683,-1.958008 0,-0.751949 -0.25228,-1.385086 -0.75683,-1.899414 -0.50131,-0.514317 -1.11166,-0.771478 -1.83106,-0.771485 -0.7194,7e-6 -1.32975,0.257168 -1.83105,0.771485 -0.49805,0.514328 -0.74708,1.147465 -0.74707,1.899414"
           id="path4076"
           style="line-height:125%;letter-spacing:0px;fill:#333333;font-family:Museo500-Regular-webfont;-inkscape-font-specification:Museo500-Regular-webfont" />
        <path
           d="m 128.85742,84.086775 0,-6.010743 c 0,-0.14648 -0.0732,-0.219722 -0.21972,-0.219726 l -0.41016,0 0,-0.830078 0.9082,0 c 0.41341,5e-6 0.62012,0.169275 0.62012,0.507812 l -0.01,0.268555 0.0195,0 c 0.013,-0.02604 0.0309,-0.05859 0.0537,-0.09766 0.026,-0.03906 0.0846,-0.110673 0.17578,-0.214844 0.0944,-0.104162 0.20019,-0.195308 0.31738,-0.273438 0.11719,-0.08137 0.27669,-0.152989 0.47852,-0.214843 0.20507,-0.0651 0.4248,-0.09765 0.65918,-0.09766 0.67382,6e-6 1.21256,0.244146 1.61621,0.732422 0.40689,0.48503 0.61034,1.124678 0.61035,1.918946 -1e-5,0.794272 -0.21648,1.435548 -0.64942,1.923828 -0.43294,0.485026 -0.98307,0.727539 -1.65039,0.727539 -0.20508,0 -0.40039,-0.0293 -0.58593,-0.08789 -0.1823,-0.05534 -0.33041,-0.120443 -0.44434,-0.195312 -0.11393,-0.07813 -0.21322,-0.15625 -0.29785,-0.234375 -0.0814,-0.08138 -0.13835,-0.149739 -0.1709,-0.205079 l -0.0488,-0.08789 -0.0195,0 c 0.013,0.120443 0.0195,0.266927 0.0195,0.439453 l 0,2.250977 -0.97168,0 m 0.94238,-4.511719 c 0,0.488283 0.12533,0.91146 0.37598,1.269531 0.25391,0.354819 0.60384,0.532227 1.04981,0.532227 0.4134,0 0.76008,-0.161132 1.04003,-0.483399 0.27995,-0.325519 0.41992,-0.768227 0.41993,-1.328125 -1e-5,-0.546872 -0.13184,-0.984697 -0.39551,-1.313476 -0.26042,-0.332027 -0.60385,-0.498043 -1.03027,-0.498047 -0.41342,4e-6 -0.7601,0.152999 -1.04004,0.458984 -0.27995,0.302738 -0.41993,0.756839 -0.41993,1.362305"
           id="path4078"
           style="line-height:125%;letter-spacing:0px;fill:#333333;font-family:Museo500-Regular-webfont;-inkscape-font-specification:Museo500-Regular-webfont" />
        <path
           d="m 134.4043,79.555525 c 0,-0.794268 0.23925,-1.433916 0.71777,-1.918946 0.48177,-0.488276 1.08887,-0.732416 1.82129,-0.732422 0.68684,6e-6 1.2207,0.224615 1.60156,0.673828 0.38411,0.445968 0.57617,1.012374 0.57617,1.699219 l -0.0293,0.395508 -3.68653,0 c 0.026,0.520835 0.20508,0.934246 0.53711,1.240234 0.33529,0.302736 0.73568,0.454103 1.20117,0.454102 0.26042,10e-7 0.5127,-0.05045 0.75684,-0.151367 0.24739,-0.100911 0.42806,-0.198567 0.54199,-0.292969 l 0.18067,-0.146484 0.41992,0.688476 c -0.0521,0.05208 -0.13184,0.120443 -0.23926,0.205078 -0.10743,0.08464 -0.33203,0.195313 -0.67383,0.332032 -0.33854,0.136718 -0.68359,0.205078 -1.03515,0.205078 -0.79428,0 -1.44206,-0.252279 -1.94336,-0.756836 -0.49805,-0.504556 -0.74707,-1.136066 -0.74707,-1.894531 m 1.04004,-0.590821 2.68066,0 c -0.013,-0.406897 -0.13347,-0.722652 -0.36133,-0.947265 -0.22787,-0.227861 -0.50456,-0.341793 -0.83008,-0.341797 -0.38086,4e-6 -0.70638,0.112309 -0.97656,0.336914 -0.26693,0.221358 -0.43783,0.53874 -0.51269,0.952148"
           id="path4080"
           style="line-height:125%;letter-spacing:0px;fill:#333333;font-family:Museo500-Regular-webfont;-inkscape-font-specification:Museo500-Regular-webfont" />
        <path
           d="m 140.41992,82.084821 0,-4.008789 c 0,-0.14648 -0.0732,-0.219722 -0.21972,-0.219726 l -0.41016,0 0,-0.830078 0.93262,0 c 0.42643,5e-6 0.63964,0.185551 0.63964,0.55664 l 0,0.19043 -0.0244,0.292969 0.0244,0 c 0.13347,-0.286454 0.3597,-0.551754 0.67872,-0.795899 0.319,-0.244135 0.7259,-0.366205 1.2207,-0.366211 0.59244,6e-6 1.03027,0.161138 1.31348,0.483399 0.28319,0.319015 0.42479,0.80404 0.4248,1.455078 l 0,2.192383 c -1e-5,0.146485 0.0732,0.219727 0.21973,0.219726 l 0.41015,0 0,0.830078 -0.96191,0 c -0.22787,0 -0.39226,-0.04883 -0.49317,-0.146484 -0.0977,-0.100911 -0.14648,-0.265299 -0.14648,-0.493164 l 0,-2.37793 c 0,-0.406897 -0.0651,-0.721025 -0.19531,-0.942383 -0.12696,-0.221349 -0.37761,-0.332026 -0.75196,-0.332031 -0.38737,5e-6 -0.72591,0.115564 -1.01562,0.34668 -0.28972,0.231123 -0.48503,0.528975 -0.58594,0.893555 -0.0586,0.172529 -0.0879,0.400393 -0.0879,0.683593 l 0,2.368164 -0.97168,0"
           id="path4082"
           style="line-height:125%;letter-spacing:0px;fill:#333333;font-family:Museo500-Regular-webfont;-inkscape-font-specification:Museo500-Regular-webfont" />
      </g>
      <g
         transform="matrix(1.9867804,0,0,1.9867804,-117.56369,695.95711)"
         id="g4090"
         style="font-size:10px;font-style:normal;font-variant:normal;font-weight:normal;font-stretch:normal;text-align:start;line-height:125%;letter-spacing:1px;word-spacing:0px;writing-mode:lr-tb;text-anchor:start;fill:#333333;fill-opacity:1;stroke:none;font-family:Museo500-Regular-webfont;-inkscape-font-specification:Museo500-Regular-webfont">
        <path
           d="m 178.43678,81.445173 0,-5.561523 0.001,0 0,-0.859375 2.21091,0 c 1.08724,0 1.95312,0.312506 2.59766,0.9375 0.64778,0.62175 0.97167,1.482752 0.97168,2.583007 -1e-5,1.106774 -0.3239,1.974286 -0.97168,2.602539 -0.64779,0.625001 -1.51368,0.9375 -2.59766,0.9375 l -1.57226,0 c -0.22787,0 -0.39226,-0.04883 -0.49317,-0.146484 -0.0977,-0.100911 -0.14648,-0.265299 -0.14648,-0.493164 m 1.00097,-0.439453 c 0,0.146485 0.0732,0.219727 0.21973,0.219726 l 0.91797,0 c 0.80078,10e-7 1.43391,-0.232746 1.89941,-0.698242 0.46875,-0.468748 0.70312,-1.129554 0.70313,-1.982422 -1e-5,-0.846349 -0.23601,-1.500646 -0.70801,-1.96289 -0.46875,-0.465489 -1.10026,-0.698236 -1.89453,-0.698242 l -1.1377,0 0,5.12207"
           id="path4092"
           style="line-height:125%;letter-spacing:0px;fill:#333333;font-family:Museo500-Regular-webfont;-inkscape-font-specification:Museo500-Regular-webfont" />
        <path
           d="m 184.98463,80.663923 c 0,-0.260415 0.0521,-0.491535 0.15625,-0.693359 0.10742,-0.205076 0.25553,-0.364581 0.44433,-0.478516 0.19206,-0.117185 0.39063,-0.214841 0.59571,-0.292969 0.20833,-0.08138 0.43945,-0.139971 0.69336,-0.175781 0.2539,-0.03906 0.46386,-0.06347 0.62988,-0.07324 0.16601,-0.0098 0.34179,-0.01465 0.52734,-0.01465 l 0.21973,0 0,-0.04883 c 0,-0.439449 -0.0863,-0.750321 -0.25879,-0.932617 -0.17253,-0.185543 -0.45899,-0.278316 -0.85937,-0.27832 -0.18555,4e-6 -0.3711,0.0293 -0.55664,0.08789 -0.1823,0.05534 -0.27344,0.156255 -0.27344,0.302735 l 0,0.288086 -0.90821,0 0,-0.498047 c 0,-0.192053 0.0651,-0.356441 0.19532,-0.493164 0.1302,-0.139969 0.29785,-0.239253 0.50293,-0.297852 0.20833,-0.06184 0.3955,-0.104161 0.56152,-0.126953 0.16601,-0.02278 0.32877,-0.03417 0.48828,-0.03418 0.76823,6e-6 1.30696,0.175787 1.61621,0.527344 0.30924,0.348312 0.46387,0.833337 0.46387,1.455078 l 0,2.148438 c 0,0.146485 0.0732,0.219727 0.21973,0.219726 l 0.41015,0 0,0.830078 -0.9082,0 c -0.41993,0 -0.62989,-0.193684 -0.62988,-0.581054 l 0.0195,-0.297852 -0.0195,0 c -0.013,0.02604 -0.0309,0.06348 -0.0537,0.112305 -0.0195,0.04557 -0.0749,0.125326 -0.16602,0.239258 -0.0879,0.110677 -0.18881,0.209961 -0.30273,0.297851 -0.11394,0.08789 -0.26693,0.167644 -0.45899,0.239258 -0.19206,0.07487 -0.40202,0.112305 -0.62988,0.112305 -0.4655,0 -0.86914,-0.136719 -1.21094,-0.410157 -0.33854,-0.276692 -0.50781,-0.654295 -0.50781,-1.132812 m 1.17676,-0.59082 c -0.13347,0.139976 -0.2002,0.320639 -0.2002,0.541992 0,0.221355 0.083,0.411785 0.24902,0.571289 0.16927,0.159506 0.40365,0.239258 0.70313,0.239258 0.38737,0 0.70963,-0.167643 0.9668,-0.50293 0.25715,-0.33854 0.38574,-0.708006 0.38574,-1.108398 l 0,-0.170899 -0.25391,0 c -0.2474,3e-6 -0.46224,0.0098 -0.64453,0.0293 -0.18229,0.01628 -0.39551,0.05209 -0.63965,0.107422 -0.24414,0.05534 -0.43294,0.152997 -0.5664,0.292969"
           id="path4094"
           style="line-height:125%;letter-spacing:0px;fill:#333333;font-family:Museo500-Regular-webfont;-inkscape-font-specification:Museo500-Regular-webfont" />
        <path
           d="m 190.95143,80.234235 0,-2.43164 -0.65918,0 0,-0.776367 0.67871,0 0,-1.391602 0.95215,0 0,1.391602 1.21093,0 0,0.776367 -1.21093,0 0,2.324219 c -1e-5,0.240887 0.0358,0.442709 0.10742,0.605468 0.0749,0.162762 0.17252,0.279949 0.29297,0.351563 0.12044,0.06836 0.23274,0.115561 0.33691,0.141601 0.10742,0.02604 0.2181,0.03906 0.33203,0.03906 l 0.22949,-0.01953 0,0.859375 c -0.0879,0.01302 -0.20019,0.01953 -0.33691,0.01953 -0.153,0 -0.30437,-0.0098 -0.4541,-0.0293 -0.14649,-0.01953 -0.3125,-0.06836 -0.49805,-0.146484 -0.18555,-0.08138 -0.34668,-0.187174 -0.4834,-0.317383 -0.13672,-0.130208 -0.2539,-0.315755 -0.35156,-0.556641 -0.0977,-0.240884 -0.14649,-0.520832 -0.14648,-0.839844"
           id="path4096"
           style="line-height:125%;letter-spacing:0px;fill:#333333;font-family:Museo500-Regular-webfont;-inkscape-font-specification:Museo500-Regular-webfont" />
        <path
           d="m 193.91041,80.663923 c 0,-0.260415 0.0521,-0.491535 0.15625,-0.693359 0.10742,-0.205076 0.25553,-0.364581 0.44434,-0.478516 0.19205,-0.117185 0.39062,-0.214841 0.5957,-0.292969 0.20833,-0.08138 0.43945,-0.139971 0.69336,-0.175781 0.2539,-0.03906 0.46386,-0.06347 0.62988,-0.07324 0.16601,-0.0098 0.34179,-0.01465 0.52734,-0.01465 l 0.21973,0 0,-0.04883 c 0,-0.439449 -0.0863,-0.750321 -0.25879,-0.932617 -0.17253,-0.185543 -0.45898,-0.278316 -0.85937,-0.27832 -0.18555,4e-6 -0.3711,0.0293 -0.55664,0.08789 -0.1823,0.05534 -0.27344,0.156255 -0.27344,0.302735 l 0,0.288086 -0.9082,0 0,-0.498047 c 0,-0.192053 0.0651,-0.356441 0.19531,-0.493164 0.13021,-0.139969 0.29785,-0.239253 0.50293,-0.297852 0.20833,-0.06184 0.3955,-0.104161 0.56152,-0.126953 0.16602,-0.02278 0.32878,-0.03417 0.48828,-0.03418 0.76823,6e-6 1.30697,0.175787 1.61621,0.527344 0.30924,0.348312 0.46387,0.833337 0.46387,1.455078 l 0,2.148438 c 0,0.146485 0.0732,0.219727 0.21973,0.219726 l 0.41015,0 0,0.830078 -0.9082,0 c -0.41992,0 -0.62989,-0.193684 -0.62988,-0.581054 l 0.0195,-0.297852 -0.0195,0 c -0.013,0.02604 -0.0309,0.06348 -0.0537,0.112305 -0.0195,0.04557 -0.0749,0.125326 -0.16602,0.239258 -0.0879,0.110677 -0.1888,0.209961 -0.30273,0.297851 -0.11394,0.08789 -0.26693,0.167644 -0.45899,0.239258 -0.19206,0.07487 -0.40202,0.112305 -0.62988,0.112305 -0.4655,0 -0.86914,-0.136719 -1.21094,-0.410157 -0.33854,-0.276692 -0.50781,-0.654295 -0.50781,-1.132812 m 1.17676,-0.59082 c -0.13347,0.139976 -0.2002,0.320639 -0.2002,0.541992 0,0.221355 0.083,0.411785 0.24903,0.571289 0.16927,0.159506 0.40364,0.239258 0.70312,0.239258 0.38737,0 0.70963,-0.167643 0.9668,-0.50293 0.25716,-0.33854 0.38574,-0.708006 0.38574,-1.108398 l 0,-0.170899 -0.25391,0 c -0.2474,3e-6 -0.46224,0.0098 -0.64453,0.0293 -0.18229,0.01628 -0.39551,0.05209 -0.63965,0.107422 -0.24414,0.05534 -0.43294,0.152997 -0.5664,0.292969"
           id="path4098"
           style="line-height:125%;letter-spacing:0px;fill:#333333;font-family:Museo500-Regular-webfont;-inkscape-font-specification:Museo500-Regular-webfont" />
      </g>
      <g
         transform="translate(-53.243541,18.547955)"
         id="g4125"
         style="fill:#333333">
        <path
           d="m 290.19465,819.22966 1.16413,-1.41636 c 0.0387,0.0388 0.0938,0.10025 0.1649,0.18432 0.0777,0.0776 0.23605,0.21342 0.47536,0.40744 0.23929,0.18755 0.48827,0.35894 0.74697,0.51416 0.2587,0.14875 0.58207,0.28456 0.97011,0.40744 0.39451,0.11641 0.78255,0.17462 1.16413,0.17462 0.6726,0 1.24174,-0.19079 1.7074,-0.57236 0.46564,-0.38804 0.69847,-0.8925 0.69847,-1.51337 0,-0.45271 -0.17146,-0.86016 -0.51416,-1.22234 -0.3363,-0.36216 -0.75346,-0.65643 -1.25143,-0.88279 -0.49153,-0.22636 -1.0348,-0.48829 -1.6298,-0.78579 -0.58852,-0.29749 -1.13179,-0.595 -1.62977,-0.8925 -0.49151,-0.29749 -0.90868,-0.71141 -1.25144,-1.24174 -0.3363,-0.53031 -0.50446,-1.13825 -0.50446,-1.8238 0,-1.06064 0.42038,-1.94991 1.26115,-2.6678 0.84075,-0.72433 1.91758,-1.0865 3.23046,-1.08652 0.56912,2e-5 1.13825,0.0776 1.70738,0.23283 0.56912,0.14877 1.09299,0.43009 1.57159,0.84399 0.47857,0.40746 0.71786,0.90868 0.71786,1.50367 l 0,1.15443 -1.8335,0 0,-0.65968 c 0,-0.35569 -0.2199,-0.65642 -0.65967,-0.9022 -0.43332,-0.24575 -0.93454,-0.36863 -1.50366,-0.36864 -0.74377,10e-6 -1.34199,0.17786 -1.79471,0.53356 -0.44625,0.35572 -0.66937,0.8052 -0.66937,1.34845 0,0.43979 0.1649,0.8343 0.49475,1.18353 0.3363,0.34278 0.75344,0.62088 1.25145,0.8343 0.50444,0.20696 1.04771,0.45272 1.62978,0.73728 0.58852,0.28457 1.13179,0.57883 1.62977,0.88279 0.50445,0.30398 0.92159,0.73083 1.25144,1.28055 0.3363,0.54973 0.50446,1.18353 0.50446,1.90141 0,1.11239 -0.40421,2.05663 -1.21263,2.83271 -0.80844,0.77609 -1.88848,1.16413 -3.24016,1.16413 -0.5562,0 -1.09623,-0.0744 -1.62008,-0.22312 -0.52386,-0.14228 -0.96041,-0.31367 -1.30965,-0.51416 -0.34924,-0.20049 -0.65967,-0.40098 -0.9313,-0.60147 -0.27163,-0.20695 -0.46888,-0.38481 -0.59176,-0.53356 l -0.19411,-0.21342"
           id="path4084"
           style="font-size:10px;font-style:normal;font-variant:normal;font-weight:normal;font-stretch:normal;text-align:start;line-height:125%;letter-spacing:0px;word-spacing:0px;writing-mode:lr-tb;text-anchor:start;fill:#333333;fill-opacity:1;stroke:none;font-family:Museo500-Regular-webfont;-inkscape-font-specification:Museo500-Regular-webfont" />
        <path
           d="m 318.56043,809.05323 0,-2.00812 1.73651,0 0,2.00812 -1.73651,0 m -0.0387,10.74879 0,-6.69374 c 0,-0.29102 -0.14543,-0.43654 -0.43654,-0.43655 l -0.81489,0 0,-1.64918 1.89171,0 c 0.45271,10e-6 0.77608,0.10025 0.9701,0.30073 0.20049,0.19403 0.30072,0.5174 0.30074,0.97011 l 0,6.69374 c -2e-5,0.29104 0.14544,0.43655 0.43654,0.43655 l 0.8149,0 0,1.64918 -1.89172,0 c -0.4527,0 -0.77931,-0.097 -0.9798,-0.29103 -0.19411,-0.20049 -0.29104,-0.52709 -0.29104,-0.97981"
           id="path4086"
           style="font-size:10px;font-style:normal;font-variant:normal;font-weight:normal;font-stretch:normal;text-align:start;line-height:125%;letter-spacing:0px;word-spacing:0px;writing-mode:lr-tb;text-anchor:start;fill:#333333;fill-opacity:1;stroke:none;font-family:Museo500-Regular-webfont;-inkscape-font-specification:Museo500-Regular-webfont" />
        <path
           d="m 323.89603,821.07286 0,-7.96458 c 0,-0.29102 -0.14543,-0.43654 -0.43656,-0.43655 l -0.81487,0 0,-1.64918 1.85289,0 c 0.84724,10e-6 1.27084,0.36865 1.27084,1.10592 l 0,0.37834 -0.0199,0.58207 0.0387,0 c 0.25222,-0.62086 0.69847,-1.16089 1.33875,-1.62008 0.64026,-0.45918 1.33873,-0.68877 2.09542,-0.68878 1.66857,10e-6 2.67426,0.76316 3.01704,2.28946 l 0.0387,0 c 0.29103,-0.6338 0.76315,-1.17383 1.41636,-1.62008 0.65967,-0.44624 1.38077,-0.66937 2.16335,-0.66938 2.21182,10e-6 3.31774,1.28379 3.31776,3.85133 l 0,4.35578 c -2e-5,0.29104 0.14543,0.43655 0.43656,0.43655 l 0.81487,0 0,1.64918 -1.9111,0 c -0.45273,0 -0.77934,-0.097 -0.97982,-0.29103 -0.19411,-0.20049 -0.29104,-0.52709 -0.29103,-0.97981 l 0,-4.75352 c -10e-6,-0.80842 -0.12298,-1.42929 -0.36864,-1.86261 -0.23931,-0.43977 -0.70495,-0.65967 -1.39695,-0.65967 -0.65969,0 -1.24821,0.249 -1.76559,0.74698 -0.51742,0.498 -0.86987,1.1124 -1.05742,1.8432 -0.10351,0.45273 -0.15517,0.90868 -0.15517,1.36786 l 0,4.5886 -1.93052,0 0,-6.02436 c -2e-5,-0.79548 -0.11642,-1.41312 -0.34925,-1.85291 -0.22636,-0.44624 -0.68554,-0.66937 -1.37756,-0.66937 -0.70495,0 -1.31286,0.25547 -1.82378,0.76638 -0.50446,0.51093 -0.85694,1.14473 -1.05743,1.90141 -0.0906,0.36865 -0.13589,0.79873 -0.13589,1.29025 l 0,4.5886 -1.93052,0"
           id="path4088"
           style="font-size:10px;font-style:normal;font-variant:normal;font-weight:normal;font-stretch:normal;text-align:start;line-height:125%;letter-spacing:0px;word-spacing:0px;writing-mode:lr-tb;text-anchor:start;fill:#333333;fill-opacity:1;stroke:none;font-family:Museo500-Regular-webfont;-inkscape-font-specification:Museo500-Regular-webfont" />
        <path
           d="m 300.44667,815.75213 c 0.0821,0.31344 0.1403,0.65885 0.1875,1.03125 0.54254,0.1697 1.01326,0.57259 1.53125,1 0.69066,0.56988 1.2903,1.28031 2.1875,1.34375 l 0.0313,0 c 0.80489,0.0252 1.39606,-0.46122 1.96875,-0.84375 0.57269,-0.38253 1.10392,-0.71875 1.78125,-0.71875 0.69741,0 1.22553,0.30929 1.78125,0.6875 0.55572,0.37821 1.13757,0.875 1.96875,0.875 0.45463,0 0.83093,-0.22437 1.1875,-0.46875 0.35657,-0.24438 0.69547,-0.52393 1.0625,-0.8125 0.73405,-0.57715 1.7952,-1.09375 2.58682,-1.09375 l 0,-1 c -1.18982,0 -2.40939,0.67491 -3.18057,1.28125 -0.38559,0.30317 -0.74028,0.61307 -1.03125,0.8125 -0.29097,0.19943 -0.52786,0.28125 -0.625,0.28125 -0.41845,0 -0.82523,-0.29207 -1.40625,-0.6875 -0.58102,-0.39543 -1.34269,-0.875 -2.34375,-0.875 -0.99317,0 -1.7449,0.475 -2.34375,0.875 -0.58796,0.39273 -1.01218,0.68719 -1.34375,0.6875 -0.003,-2.5e-4 -0.0276,4.1e-4 -0.0313,0 -0.27422,-0.0308 -0.87229,-0.52971 -1.59375,-1.125 -0.65258,-0.53845 -1.38377,-1.12789 -2.375,-1.25 z"
           id="path4100"
           style="font-size:medium;font-style:normal;font-variant:normal;font-weight:normal;font-stretch:normal;text-indent:0;text-align:start;text-decoration:none;line-height:normal;letter-spacing:normal;word-spacing:normal;text-transform:none;direction:ltr;block-progression:tb;writing-mode:lr-tb;text-anchor:start;baseline-shift:baseline;color:#000000;fill:#333333;fill-opacity:1;stroke:none;stroke-width:1px;marker:none;visibility:visible;display:inline;overflow:visible;enable-background:accumulate;font-family:Sans;-inkscape-font-specification:Sans" />
        <path
           d="m 316.72099,818.03338 c -1.26145,0 -2.30739,0.6942 -2.93057,1.25 -0.62318,0.5558 -1.0768,0.96875 -1.90625,0.96875 -0.58369,0.0182 -1.10896,-0.2662 -1.6875,-0.625 -0.57854,-0.3588 -1.2207,-0.8125 -2.0625,-0.8125 -0.91514,0 -1.56564,0.45048 -2.125,0.8125 -0.55936,0.36202 -1.00938,0.64326 -1.59375,0.625 l -0.0313,0 c -0.34415,0 -1.09455,-0.46741 -1.875,-1.03125 -0.58534,-0.42288 -1.20195,-0.88313 -1.875,-1.09375 -0.0499,0.3671 -0.13311,0.70937 -0.25,1.0625 0.46273,0.18535 1.03496,0.4852 1.53125,0.84375 0.77617,0.56075 1.53699,1.21875 2.46875,1.21875 0.91693,0.0286 1.59285,-0.41662 2.15625,-0.78125 0.5634,-0.36463 1.00619,-0.65625 1.59375,-0.65625 0.46514,0 0.96934,0.28839 1.5625,0.65625 0.58573,0.36325 1.28639,0.79823 2.1875,0.78125 0.0114,-2.2e-4 0.0197,3.6e-4 0.0313,0 1.1734,-0.0131 1.92218,-0.67554 2.53125,-1.21875 0.61504,-0.54853 1.34965,-1 2.27432,-1 z"
           id="path4102"
           style="font-size:medium;font-style:normal;font-variant:normal;font-weight:normal;font-stretch:normal;text-indent:0;text-align:start;text-decoration:none;line-height:normal;letter-spacing:normal;word-spacing:normal;text-transform:none;direction:ltr;block-progression:tb;writing-mode:lr-tb;text-anchor:start;baseline-shift:baseline;color:#000000;fill:#333333;fill-opacity:1;stroke:none;stroke-width:1px;marker:none;visibility:visible;display:inline;overflow:visible;enable-background:accumulate;font-family:Sans;-inkscape-font-specification:Sans" />
        <path
           d="m 299.29042,813.59588 c 0.28858,0.3192 0.52791,0.64417 0.71875,1 1.09433,0.0157 1.78163,0.41532 2.375,0.875 0.6054,0.469 1.11669,1.096 1.96875,1.15625 l 0.0313,0 c 0.77226,0.0242 1.36424,-0.39045 1.9375,-0.71875 0.57326,-0.3283 1.1129,-0.625 1.8125,-0.625 0.71931,0 1.2565,0.26994 1.8125,0.59375 0.556,0.32381 1.13609,0.75 1.9375,0.75 0.42766,0 0.80154,-0.19528 1.125,-0.40625 0.32346,-0.21097 0.63558,-0.44726 0.96875,-0.6875 0.66634,-0.48049 1.66711,-0.9375 2.74307,-0.9375 l 0,-1 c -1.35191,0 -2.60953,0.60057 -3.33682,1.125 -0.36364,0.26222 -0.68318,0.49037 -0.9375,0.65625 -0.25432,0.16588 -0.43839,0.25 -0.5625,0.25 -0.44822,0 -0.85676,-0.25553 -1.4375,-0.59375 -0.58074,-0.33822 -1.33334,-0.75 -2.3125,-0.75 -0.9709,0 -1.71422,0.40737 -2.3125,0.75 -0.58699,0.33617 -1.01279,0.59531 -1.375,0.59375 -0.005,-3.4e-4 -0.0263,5.1e-4 -0.0313,0 -0.31269,-0.033 -0.73834,-0.42007 -1.40625,-0.9375 -0.66383,-0.51426 -2.34263,-1.07036 -3.71875,-1.09375 z"
           id="path4104"
           style="font-size:medium;font-style:normal;font-variant:normal;font-weight:normal;font-stretch:normal;text-indent:0;text-align:start;text-decoration:none;line-height:normal;letter-spacing:normal;word-spacing:normal;text-transform:none;direction:ltr;block-progression:tb;writing-mode:lr-tb;text-anchor:start;baseline-shift:baseline;color:#000000;fill:#333333;fill-opacity:1;stroke:none;stroke-width:1px;marker:none;visibility:visible;display:inline;overflow:visible;enable-background:accumulate;font-family:Sans;-inkscape-font-specification:Sans" />
        <path
           d="m 306.49131,811.28338 -0.34375,0.21875 -2.65625,1.5625 c -0.34362,0.19635 -0.47863,0.61552 -0.3125,0.90625 0.16052,0.27803 0.52246,0.35037 0.84375,0.1875 l 2.46875,-1.4375 0.875,0.4375 -2.84375,1.625 c -0.39192,0.22628 -1.18243,0.59517 -1.34375,1.0625 0.32331,0.25001 0.90702,0.5695 1.25,0.59375 1.13841,0.0356 2.0795,-1.34375 3.75,-1.34375 1.59232,0 2.09727,1.27194 3.22098,1.41741 0.23005,-0.44909 0.22427,-1.1072 -0.0647,-1.47991 -0.33571,-0.58634 -0.68444,-1.17425 -1.03125,-1.75 -0.10727,-0.20176 -0.33062,-0.39816 -0.625,-0.53125 l -2.81253,-1.28125 z m 6.07143,-0.22321 c -0.90657,0 -1.65625,0.71843 -1.65625,1.625 0,0.90657 0.74968,1.65625 1.65625,1.65625 0.90657,0 1.625,-0.74968 1.625,-1.65625 0,-0.90657 -0.71843,-1.625 -1.625,-1.625 z"
           id="path4106"
           style="color:#000000;fill:#333333;fill-opacity:1;fill-rule:nonzero;stroke:none;stroke-width:2;marker:none;visibility:visible;display:inline;overflow:visible;enable-background:accumulate" />
      </g>
      <g
         transform="translate(96.59095,9.5665158)"
         id="g4149"
         style="fill:#333333">
        <path
           d="m 187.04992,838.74459 c -2.20569,2.01372 -3.72574,4.26874 -3.72574,7.34548 0,1.8866 1.49864,3.58943 3.49099,3.58943 2.147,0 3.52885,-1.64955 3.52885,-3.43041 0,-3.54627 -3.54448,-4.31384 -3.2941,-7.5045 z m 0.28019,4.18768 c 0.15338,0.006 0.31819,0.0651 0.4695,0.18932 0.89881,0.79964 2.01031,3.01958 0.84057,5.02824 0,0 0.11004,-2.27677 -1.15862,-3.29411 -1.30935,-0.98503 -0.81612,-1.94991 -0.15145,-1.92345 z"
           id="path4136"
           style="color:#000000;fill:#333333;fill-opacity:1;fill-rule:nonzero;stroke:none;stroke-width:1.5;marker:none;visibility:visible;display:inline;overflow:visible;enable-background:accumulate" />
      </g>
    </g>
  </g>
</svg>
